<svg version="1.1" xmlns="http://www.w3.org/2000/svg" viewBox="0 0 104 483" width="104" height="483">
  <!-- svg-source:excalidraw -->
  
  <defs>
    <style class="style-fonts">
      @font-face {
        font-family: "Virgil";
        src: url("https://excalidraw.com/Virgil.woff2");
      }
      @font-face {
        font-family: "Cascadia";
        src: url("https://excalidraw.com/Cascadia.woff2");
      }
      @font-face {
        font-family: "Assistant";
        src: url("https://excalidraw.com/Assistant-Regular.woff2");
      }
    </style>
    
  </defs>
  <g transform="translate(50 10) rotate(0 -5.5 227)" stroke="none"><path fill="#bd2538" d="M 1.43,-0.61 Q 1.43,-0.61 2.26,1.41 3.09,3.43 5.17,8.92 7.25,14.41 9.58,21.96 11.90,29.50 14.33,39.63 16.75,49.76 18.08,61.03 19.40,72.30 19.96,83.43 20.51,94.56 18.72,104.59 16.93,114.63 13.24,122.73 9.56,130.84 3.57,136.98 -2.40,143.12 -7.61,146.33 -12.82,149.53 -18.06,150.93 -23.30,152.32 -27.18,151.44 -31.06,150.55 -33.69,148.61 -36.32,146.66 -37.79,143.66 -39.27,140.65 -39.87,137.59 -40.47,134.52 -40.14,130.80 -39.80,127.08 -38.46,123.67 -37.12,120.26 -35.03,117.57 -32.93,114.88 -30.13,113.35 -27.34,111.83 -23.64,111.76 -19.95,111.70 -15.64,113.78 -11.34,115.86 -6.58,120.88 -1.81,125.89 3.09,134.70 8.01,143.52 12.70,156.80 17.38,170.08 20.53,187.86 23.67,205.64 25.58,227.29 27.49,248.95 28.30,273.12 29.11,297.28 29.17,320.49 29.23,343.71 27.81,363.67 26.39,383.64 25.22,399.30 24.04,414.95 23.54,425.04 23.05,435.13 22.83,440.56 22.62,446.00 22.46,450.02 22.31,454.05 22.26,454.25 22.22,454.46 22.12,454.65 22.01,454.83 21.85,454.97 21.69,455.11 21.49,455.19 21.30,455.27 21.08,455.29 20.87,455.30 20.67,455.25 20.46,455.20 20.28,455.08 20.11,454.96 19.98,454.79 19.84,454.63 19.77,454.43 19.70,454.23 19.70,454.01 19.70,453.80 19.76,453.60 19.83,453.40 19.95,453.23 20.08,453.06 20.25,452.93 20.43,452.81 20.63,452.75 20.83,452.69 21.05,452.70 21.26,452.71 21.46,452.78 21.66,452.86 21.82,452.99 21.98,453.13 22.10,453.31 22.21,453.49 22.26,453.70 22.31,453.90 22.29,454.12 22.27,454.33 22.18,454.52 22.09,454.72 21.95,454.87 21.81,455.03 21.62,455.13 21.43,455.23 21.22,455.27 21.01,455.31 20.80,455.28 20.59,455.25 20.41,455.15 20.22,455.05 20.07,454.90 19.92,454.75 19.83,454.56 19.73,454.37 19.71,454.15 19.68,453.94 19.68,453.94 19.68,453.94 19.84,449.92 20.00,445.90 20.21,440.45 20.42,435.00 20.92,424.88 21.42,414.76 22.60,399.11 23.77,383.46 25.19,363.58 26.60,343.71 26.54,320.54 26.49,297.37 25.68,273.27 24.88,249.18 22.98,227.64 21.09,206.09 17.99,188.52 14.90,170.95 10.31,157.87 5.71,144.79 0.98,136.23 -3.74,127.67 -8.15,122.93 -12.56,118.18 -16.32,116.24 -20.07,114.30 -23.16,114.24 -26.25,114.18 -28.59,115.37 -30.94,116.57 -32.82,118.92 -34.70,121.27 -35.94,124.32 -37.19,127.36 -37.54,130.71 -37.89,134.06 -37.38,136.81 -36.88,139.56 -35.75,142.12 -34.63,144.68 -32.49,146.35 -30.35,148.03 -27.08,148.90 -23.81,149.76 -18.99,148.51 -14.17,147.26 -9.22,144.26 -4.28,141.25 1.44,135.47 7.16,129.68 10.73,121.91 14.30,114.14 16.06,104.41 17.82,94.68 17.26,83.65 16.69,72.62 15.38,61.51 14.06,50.41 11.64,40.37 9.21,30.34 6.88,22.89 4.55,15.45 2.45,10.03 0.35,4.61 -0.54,2.61 -1.43,0.61 -1.48,0.43 -1.54,0.25 -1.54,0.06 -1.55,-0.12 -1.52,-0.30 -1.48,-0.49 -1.40,-0.66 -1.32,-0.83 -1.20,-0.97 -1.08,-1.12 -0.93,-1.23 -0.78,-1.35 -0.61,-1.42 -0.43,-1.49 -0.25,-1.53 -0.06,-1.56 0.12,-1.54 0.30,-1.53 0.48,-1.47 0.66,-1.41 0.82,-1.31 0.98,-1.21 1.11,-1.07 1.24,-0.94 1.34,-0.77 1.43,-0.61 1.43,-0.61 L 1.43,-0.61 Z"></path></g><g transform="translate(55 454) rotate(0 19.5 9.5)" stroke="none"><path fill="#bd2538" d="M 1.39,-0.69 Q 1.39,-0.69 2.51,1.61 3.63,3.93 5.22,6.59 6.81,9.25 8.27,10.87 9.74,12.50 11.46,14.04 13.18,15.57 15.16,16.13 17.13,16.69 19.08,16.96 21.02,17.23 23.64,16.24 26.25,15.25 28.49,13.74 30.72,12.24 32.18,10.53 33.64,8.82 34.86,7.42 36.08,6.01 36.83,4.57 37.57,3.12 37.75,2.92 37.93,2.71 38.16,2.58 38.39,2.44 38.66,2.38 38.92,2.33 39.19,2.36 39.46,2.39 39.70,2.51 39.95,2.62 40.14,2.81 40.33,3.00 40.46,3.24 40.58,3.48 40.62,3.75 40.66,4.01 40.62,4.28 40.57,4.55 40.44,4.78 40.31,5.02 40.11,5.20 39.92,5.39 39.67,5.50 39.42,5.61 39.15,5.63 38.89,5.66 38.62,5.60 38.36,5.54 38.13,5.40 37.90,5.25 37.73,5.05 37.56,4.84 37.46,4.59 37.36,4.34 37.35,4.07 37.34,3.80 37.41,3.54 37.49,3.28 37.64,3.06 37.80,2.83 38.01,2.67 38.23,2.51 38.49,2.43 38.74,2.35 39.01,2.35 39.28,2.35 39.54,2.44 39.79,2.53 40.01,2.70 40.22,2.86 40.37,3.09 40.52,3.31 40.59,3.57 40.66,3.83 40.64,4.10 40.62,4.37 40.52,4.62 40.41,4.87 40.41,4.87 40.42,4.87 39.31,6.42 38.21,7.97 36.93,9.27 35.65,10.57 33.94,12.51 32.22,14.45 29.70,16.11 27.17,17.78 23.98,18.84 20.79,19.91 18.56,19.60 16.33,19.30 13.89,18.50 11.45,17.70 9.55,16.05 7.65,14.39 5.99,12.57 4.34,10.75 2.65,8.01 0.96,5.26 -0.21,2.98 -1.39,0.69 -1.46,0.52 -1.52,0.34 -1.54,0.15 -1.56,-0.03 -1.53,-0.21 -1.51,-0.40 -1.44,-0.57 -1.37,-0.75 -1.26,-0.90 -1.15,-1.06 -1.00,-1.18 -0.86,-1.30 -0.69,-1.38 -0.52,-1.47 -0.34,-1.51 -0.15,-1.55 0.03,-1.55 0.21,-1.54 0.40,-1.50 0.58,-1.45 0.74,-1.36 0.91,-1.27 1.05,-1.14 1.19,-1.01 1.29,-0.85 1.39,-0.69 1.39,-0.69 L 1.39,-0.69 Z"></path></g></svg>