<svg version="1.1" xmlns="http://www.w3.org/2000/svg" viewBox="0 0 76 259" width="76" height="259">
  <!-- svg-source:excalidraw -->
  
  <defs>
    <style class="style-fonts">
      @font-face {
        font-family: "Virgil";
        src: url("https://excalidraw.com/Virgil.woff2");
      }
      @font-face {
        font-family: "Cascadia";
        src: url("https://excalidraw.com/Cascadia.woff2");
      }
      @font-face {
        font-family: "Assistant";
        src: url("https://excalidraw.com/Assistant-Regular.woff2");
      }
    </style>
    
  </defs>
  <g transform="translate(11 10) rotate(0 24.5 108)" stroke="none"><path fill="#bd2538" d="M 1.51,-0.37 Q 1.51,-0.37 2.05,1.92 2.59,4.23 3.11,7.58 3.63,10.92 4.13,14.92 4.63,18.93 5.13,23.80 5.62,28.68 6.68,33.84 7.74,38.99 8.77,44.98 9.80,50.96 11.37,56.59 12.94,62.22 14.46,66.91 15.99,71.60 17.48,74.99 18.97,78.37 20.44,80.92 21.91,83.47 23.10,85.09 24.28,86.71 25.36,87.54 26.43,88.36 27.64,88.33 28.85,88.31 30.11,87.09 31.36,85.86 33.52,83.86 35.68,81.86 37.70,79.37 39.73,76.88 41.16,74.70 42.59,72.52 43.79,70.46 44.98,68.40 45.74,66.46 46.51,64.52 46.82,62.36 47.13,60.21 47.28,58.13 47.42,56.05 47.47,54.04 47.53,52.02 46.95,50.52 46.38,49.01 45.83,47.83 45.27,46.66 43.55,45.59 41.83,44.52 40.93,45.14 40.04,45.76 38.56,47.74 37.09,49.71 34.63,53.74 32.16,57.77 29.69,63.98 27.21,70.19 25.00,79.11 22.78,88.02 21.25,97.82 19.72,107.62 18.48,118.97 17.24,130.32 16.99,142.28 16.75,154.24 17.21,164.48 17.67,174.73 17.87,182.85 18.06,190.97 18.43,196.40 18.79,201.83 18.95,205.03 19.10,208.22 19.21,210.16 19.32,212.10 19.48,214.02 19.65,215.95 19.61,216.22 19.58,216.48 19.46,216.72 19.34,216.96 19.15,217.15 18.96,217.34 18.72,217.46 18.48,217.58 18.21,217.61 17.95,217.65 17.69,217.60 17.42,217.55 17.19,217.41 16.96,217.28 16.78,217.08 16.60,216.88 16.50,216.64 16.39,216.39 16.37,216.13 16.35,215.86 16.41,215.60 16.48,215.34 16.62,215.11 16.77,214.89 16.97,214.72 17.18,214.55 17.43,214.46 17.69,214.37 17.95,214.36 18.22,214.36 18.48,214.44 18.73,214.51 18.95,214.67 19.17,214.83 19.32,215.04 19.48,215.26 19.56,215.52 19.63,215.77 19.63,216.04 19.62,216.31 19.53,216.56 19.43,216.81 19.27,217.02 19.10,217.23 18.87,217.37 18.65,217.51 18.39,217.58 18.13,217.64 17.86,217.62 17.59,217.60 17.35,217.49 17.10,217.39 16.90,217.21 16.70,217.03 16.57,216.80 16.44,216.56 16.39,216.30 16.34,216.04 16.34,216.04 16.34,216.04 16.41,214.12 16.47,212.20 16.45,210.28 16.42,208.36 16.26,205.19 16.09,202.02 15.71,196.53 15.33,191.04 15.12,182.95 14.90,174.85 14.41,164.52 13.92,154.19 14.13,142.10 14.35,130.01 15.54,118.59 16.74,107.17 18.23,97.22 19.72,87.27 21.90,78.13 24.09,68.98 26.56,62.46 29.04,55.94 31.45,51.67 33.86,47.39 35.74,44.71 37.63,42.03 39.50,41.21 41.37,40.39 43.55,41.58 45.74,42.78 47.00,44.00 48.26,45.22 48.75,46.66 49.23,48.11 49.76,50.08 50.28,52.05 50.21,54.14 50.14,56.24 50.00,58.42 49.86,60.61 49.50,63.06 49.14,65.52 48.31,67.67 47.49,69.82 46.30,71.98 45.11,74.14 43.64,76.47 42.18,78.81 40.08,81.53 37.98,84.24 35.86,86.37 33.74,88.51 31.69,90.25 29.65,92.00 27.92,91.97 26.19,91.95 25.26,91.30 24.34,90.66 23.22,89.48 22.11,88.29 20.87,86.54 19.62,84.79 18.08,82.12 16.54,79.44 15.00,75.94 13.45,72.43 11.91,67.68 10.36,62.94 8.75,57.18 7.14,51.42 6.10,45.48 5.07,39.55 3.97,34.25 2.87,28.96 2.36,24.13 1.84,19.29 1.31,15.34 0.78,11.38 0.24,8.17 -0.29,4.96 -0.90,2.67 -1.51,0.37 -1.53,0.19 -1.56,0.00 -1.54,-0.18 -1.51,-0.36 -1.45,-0.54 -1.38,-0.72 -1.27,-0.87 -1.17,-1.03 -1.03,-1.15 -0.89,-1.28 -0.72,-1.37 -0.55,-1.45 -0.37,-1.50 -0.19,-1.55 -0.00,-1.55 0.18,-1.55 0.36,-1.50 0.54,-1.46 0.71,-1.37 0.88,-1.28 1.02,-1.16 1.16,-1.03 1.27,-0.88 1.38,-0.73 1.44,-0.55 1.51,-0.37 1.51,-0.37 L 1.51,-0.37 Z"></path></g><g transform="translate(10 213) rotate(0 28 18)" stroke="none"><path fill="#bd2538" d="M 1.84,-0.52 Q 1.84,-0.52 2.34,1.50 2.85,3.53 3.87,6.35 4.89,9.16 6.15,11.77 7.42,14.37 8.54,16.98 9.67,19.60 10.97,22.09 12.27,24.58 13.39,26.50 14.51,28.41 15.58,29.71 16.64,31.00 17.44,31.78 18.24,32.56 19.52,33.07 20.80,33.59 21.79,32.91 22.78,32.23 25.58,29.84 28.37,27.45 32.24,23.84 36.11,20.22 39.77,16.42 43.43,12.61 46.14,9.58 48.85,6.54 50.61,4.67 52.36,2.79 53.61,1.37 54.86,-0.03 55.06,-0.19 55.25,-0.34 55.49,-0.42 55.72,-0.51 55.97,-0.51 56.22,-0.52 56.45,-0.44 56.69,-0.37 56.89,-0.22 57.09,-0.07 57.23,0.12 57.38,0.32 57.45,0.56 57.52,0.80 57.51,1.05 57.50,1.30 57.41,1.53 57.33,1.76 57.17,1.96 57.01,2.15 56.80,2.28 56.59,2.41 56.35,2.47 56.11,2.53 55.86,2.50 55.61,2.48 55.38,2.38 55.16,2.28 54.97,2.11 54.79,1.95 54.67,1.73 54.55,1.51 54.50,1.27 54.46,1.02 54.49,0.78 54.53,0.53 54.64,0.31 54.76,0.09 54.93,-0.08 55.11,-0.25 55.33,-0.36 55.56,-0.47 55.80,-0.50 56.05,-0.53 56.29,-0.48 56.54,-0.43 56.75,-0.31 56.97,-0.18 57.13,-0.00 57.30,0.18 57.39,0.41 57.49,0.64 57.51,0.89 57.53,1.13 57.46,1.37 57.40,1.62 57.26,1.82 57.13,2.03 57.13,2.03 57.13,2.03 55.83,3.40 54.54,4.78 52.85,6.67 51.16,8.56 48.47,11.69 45.78,14.83 42.14,18.77 38.51,22.71 34.68,26.49 30.86,30.27 27.74,33.12 24.61,35.96 22.49,36.76 20.38,37.57 18.97,37.08 17.56,36.59 16.56,35.71 15.57,34.83 14.88,33.84 14.20,32.86 13.15,31.35 12.09,29.85 10.91,27.89 9.73,25.94 8.34,23.37 6.95,20.81 5.79,18.29 4.63,15.77 3.23,13.06 1.82,10.35 0.63,7.43 -0.55,4.51 -1.19,2.51 -1.84,0.52 -1.87,0.29 -1.91,0.07 -1.89,-0.15 -1.87,-0.38 -1.79,-0.60 -1.72,-0.82 -1.60,-1.02 -1.47,-1.21 -1.31,-1.37 -1.14,-1.53 -0.94,-1.64 -0.74,-1.76 -0.52,-1.82 -0.29,-1.88 -0.06,-1.89 0.16,-1.90 0.38,-1.85 0.61,-1.81 0.82,-1.71 1.02,-1.61 1.20,-1.46 1.38,-1.32 1.52,-1.13 1.66,-0.95 1.75,-0.73 1.84,-0.52 1.84,-0.52 L 1.84,-0.52 Z"></path></g></svg>